adventpro-Bold.ufo
<glyph name="exclam" format="1">
  <advance width="194"/>
  <unicode hex="0021"/>
  <outline>
    <contour>
      <point x="39" y="640" type="line"/>
      <point x="39" y="675"/>
      <point x="67" y="708"/>
      <point x="95" y="708" type="qcurve" smooth="yes"/>
      <point x="155" y="708"/>
      <point x="155" y="641" type="qcurve"/>
      <point x="133" y="120" type="line"/>
      <point x="57" y="120" type="line"/>
    </contour>
    <contour>
      <point x="97" y="105" type="qcurve" smooth="yes"/>
      <point x="122" y="105"/>
      <point x="156" y="70"/>
      <point x="156" y="45" type="qcurve" smooth="yes"/>
      <point x="156" y="20"/>
      <point x="122" y="-15"/>
      <point x="97" y="-15" type="qcurve" smooth="yes"/>
      <point x="73" y="-15"/>
      <point x="38" y="20"/>
      <point x="38" y="45" type="qcurve" smooth="yes"/>
      <point x="38" y="70"/>
      <point x="73" y="105"/>
    </contour>
  </outline>
</glyph>
<glyph name="dollar" format="1">
  <advance width="544"/>
  <unicode hex="0024"/>
  <outline>
    <contour>
      <point x="229" y="-114" type="line"/>
      <point x="229" y="816" type="line"/>
      <point x="339" y="816" type="line"/>
      <point x="339" y="-114" type="line"/>
    </contour>
    <component base="S"/>
  </outline>
</glyph>
<glyph name="quotesingle" format="1">
  <advance width="148"/>
  <unicode hex="0027"/>
  <outline>
    <contour>
      <point x="28" y="694" type="line"/>
      <point x="28" y="715"/>
      <point x="55" y="737"/>
      <point x="91" y="737"/>
      <point x="118" y="715"/>
      <point x="118" y="694" type="qcurve"/>
      <point x="104" y="587" type="line"/>
      <point x="42" y="587" type="line"/>
    </contour>
  </outline>
</glyph>
<glyph name="parenleft" format="1">
  <advance width="240"/>
  <unicode hex="0028"/>
  <outline>
    <contour>
      <point x="214" y="729" type="line"/>
      <point x="214" y="729"/>
      <point x="194" y="717"/>
      <point x="169" y="689"/>
      <point x="149" y="642"/>
      <point x="149" y="606" type="qcurve" smooth="yes"/>
      <point x="149" y="465"/>
      <point x="149" y="270"/>
      <point x="149" y="143"/>
      <point x="149" y="103" type="qcurve" smooth="yes"/>
      <point x="149" y="64"/>
      <point x="169" y="11"/>
      <point x="195" y="-21"/>
      <point x="215" y="-35"/>
      <point x="215" y="-35" type="qcurve"/>
      <point x="160" y="-116" type="line"/>
      <point x="123" y="-95"/>
      <point x="76" y="-47"/>
      <point x="50" y="6"/>
      <point x="40" y="64"/>
      <point x="40" y="94" type="qcurve" smooth="yes"/>
      <point x="40" y="604" type="line" smooth="yes"/>
      <point x="40" y="644"/>
      <point x="62" y="721"/>
      <point x="113" y="790"/>
      <point x="159" y="816" type="qcurve"/>
    </contour>
  </outline>
</glyph>
<glyph name="three" format="1">
  <advance width="449"/>
  <unicode hex="0033"/>
  <outline>
    <contour>
      <point x="247" y="411" type="line"/>
      <point x="281" y="405"/>
      <point x="341" y="369"/>
      <point x="366" y="341" type="qcurve" smooth="yes"/>
      <point x="419" y="282"/>
      <point x="419" y="201" type="qcurve" smooth="yes"/>
      <point x="419" y="111"/>
      <point x="355" y="50" type="qcurve"/>
      <point x="293" y="-12"/>
      <point x="205" y="-12" type="qcurve" smooth="yes"/>
      <point x="152" y="-12"/>
      <point x="59" y="39"/>
      <point x="29" y="82" type="qcurve"/>
      <point x="97" y="161" type="line"/>
      <point x="111" y="132"/>
      <point x="170" y="95"/>
      <point x="203" y="95" type="qcurve" smooth="yes"/>
      <point x="228" y="95"/>
      <point x="267" y="111"/>
      <point x="280" y="124" type="qcurve" smooth="yes"/>
      <point x="294" y="139"/>
      <point x="308" y="178"/>
      <point x="308" y="201" type="qcurve" smooth="yes"/>
      <point x="308" y="230"/>
      <point x="285" y="271"/>
      <point x="261" y="284" type="qcurve" smooth="yes"/>
      <point x="244" y="294"/>
      <point x="195" y="306"/>
      <point x="163" y="306" type="qcurve" smooth="yes"/>
      <point x="54" y="306" type="line"/>
      <point x="241" y="588" type="line"/>
      <point x="73" y="588" type="line"/>
      <point x="73" y="698" type="line"/>
      <point x="363" y="698" type="line"/>
      <point x="363" y="588" type="line"/>
      <point x="244" y="413" type="line"/>
    </contour>
  </outline>
</glyph>
<glyph name="six" format="1">
  <advance width="486"/>
  <unicode hex="0036"/>
  <outline>
    <contour>
      <point x="273" y="598" type="line" smooth="yes"/>
      <point x="244" y="598"/>
      <point x="197" y="578"/>
      <point x="180" y="558" type="qcurve" smooth="yes"/>
      <point x="161" y="537"/>
      <point x="142" y="475"/>
      <point x="142" y="437" type="qcurve" smooth="yes"/>
      <point x="142" y="384" type="line"/>
      <point x="142" y="384"/>
      <point x="166" y="399"/>
      <point x="213" y="413"/>
      <point x="246" y="413" type="qcurve" smooth="yes"/>
      <point x="290" y="413"/>
      <point x="365" y="384"/>
      <point x="396" y="353" type="qcurve" smooth="yes"/>
      <point x="458" y="291"/>
      <point x="458" y="204" type="qcurve" smooth="yes"/>
      <point x="458" y="116"/>
      <point x="396" y="52" type="qcurve" smooth="yes"/>
      <point x="334" y="-10"/>
      <point x="246" y="-10" type="qcurve" smooth="yes"/>
      <point x="156" y="-10"/>
      <point x="96" y="52" type="qcurve" smooth="yes"/>
      <point x="34" y="116"/>
      <point x="34" y="204" type="qcurve" smooth="yes"/>
      <point x="34" y="460" type="line" smooth="yes"/>
      <point x="34" y="500"/>
      <point x="58" y="577"/>
      <point x="85" y="615" type="qcurve" smooth="yes"/>
      <point x="111" y="652"/>
      <point x="211" y="698"/>
      <point x="278" y="698" type="qcurve" smooth="yes"/>
      <point x="312" y="698" type="line"/>
      <point x="312" y="598" type="line"/>
    </contour>
    <contour>
      <point x="246" y="305" type="qcurve" smooth="yes"/>
      <point x="218" y="305"/>
      <point x="171" y="277"/>
      <point x="142" y="230"/>
      <point x="142" y="202" type="qcurve" smooth="yes"/>
      <point x="142" y="174"/>
      <point x="171" y="126"/>
      <point x="218" y="98"/>
      <point x="246" y="98" type="qcurve" smooth="yes"/>
      <point x="275" y="98"/>
      <point x="321" y="126"/>
      <point x="349" y="174"/>
      <point x="349" y="202" type="qcurve" smooth="yes"/>
      <point x="349" y="230"/>
      <point x="321" y="277"/>
      <point x="275" y="305"/>
    </contour>
  </outline>
</glyph>
<glyph name="eight" format="1">
  <advance width="486"/>
  <unicode hex="0038"/>
  <outline>
    <contour>
      <point x="243" y="708" type="qcurve" smooth="yes"/>
      <point x="316" y="708"/>
      <point x="367" y="656" type="qcurve" smooth="yes"/>
      <point x="393" y="630"/>
      <point x="419" y="569"/>
      <point x="419" y="532" type="qcurve" smooth="yes"/>
      <point x="419" y="482"/>
      <point x="396" y="442" type="qcurve" smooth="yes"/>
      <point x="386" y="426"/>
      <point x="359" y="399"/>
      <point x="342" y="388" type="qcurve"/>
      <point x="356" y="380"/>
      <point x="382" y="361"/>
      <point x="392" y="350" type="qcurve" smooth="yes"/>
      <point x="422" y="321"/>
      <point x="455" y="244"/>
      <point x="455" y="201" type="qcurve" smooth="yes"/>
      <point x="455" y="157"/>
      <point x="423" y="81"/>
      <point x="391" y="50" type="qcurve" smooth="yes"/>
      <point x="329" y="-12"/>
      <point x="242" y="-12" type="qcurve" smooth="yes"/>
      <point x="154" y="-12"/>
      <point x="92" y="50" type="qcurve" smooth="yes"/>
      <point x="61" y="81"/>
      <point x="29" y="157"/>
      <point x="29" y="201" type="qcurve" smooth="yes"/>
      <point x="29" y="239"/>
      <point x="55" y="306"/>
      <point x="77" y="334" type="qcurve" smooth="yes"/>
      <point x="90" y="351"/>
      <point x="123" y="379"/>
      <point x="143" y="389" type="qcurve"/>
      <point x="109" y="412"/>
      <point x="92" y="442" type="qcurve"/>
      <point x="79" y="462"/>
      <point x="69" y="507"/>
      <point x="69" y="532" type="qcurve" smooth="yes"/>
      <point x="69" y="605"/>
      <point x="119" y="656" type="qcurve" smooth="yes"/>
      <point x="168" y="708"/>
    </contour>
    <contour>
      <point x="242" y="466" type="qcurve" smooth="yes"/>
      <point x="256" y="466"/>
      <point x="282" y="480"/>
      <point x="291" y="490" type="qcurve" smooth="yes"/>
      <point x="299" y="498"/>
      <point x="309" y="521"/>
      <point x="309" y="533" type="qcurve" smooth="yes"/>
      <point x="309" y="552"/>
      <point x="291" y="582"/>
      <point x="261" y="599"/>
      <point x="242" y="599" type="qcurve" smooth="yes"/>
      <point x="224" y="599"/>
      <point x="193" y="582"/>
      <point x="175" y="552"/>
      <point x="175" y="533" type="qcurve" smooth="yes"/>
      <point x="175" y="509"/>
      <point x="192" y="490" type="qcurve" smooth="yes"/>
      <point x="200" y="480"/>
      <point x="227" y="466"/>
    </contour>
    <contour>
      <point x="242" y="96" type="qcurve" smooth="yes"/>
      <point x="271" y="96"/>
      <point x="318" y="124"/>
      <point x="346" y="172"/>
      <point x="346" y="201" type="qcurve" smooth="yes"/>
      <point x="346" y="226"/>
      <point x="326" y="268"/>
      <point x="309" y="282" type="qcurve" smooth="yes"/>
      <point x="295" y="293"/>
      <point x="262" y="306"/>
      <point x="242" y="306" type="qcurve" smooth="yes"/>
      <point x="220" y="306"/>
      <point x="178" y="288"/>
      <point x="164" y="272" type="qcurve" smooth="yes"/>
      <point x="152" y="258"/>
      <point x="137" y="221"/>
      <point x="137" y="201" type="qcurve" smooth="yes"/>
      <point x="137" y="172"/>
      <point x="165" y="124"/>
      <point x="213" y="96"/>
    </contour>
  </outline>
</glyph>
<glyph name="semicolon" format="1">
  <advance width="195"/>
  <unicode hex="003B"/>
  <outline>
    <contour>
      <point x="63" y="28" type="line"/>
      <point x="71" y="41"/>
      <point x="80" y="71"/>
      <point x="82" y="85" type="qcurve"/>
      <point x="62" y="90"/>
      <point x="37" y="123"/>
      <point x="37" y="143" type="qcurve" smooth="yes"/>
      <point x="37" y="168"/>
      <point x="71" y="202"/>
      <point x="96" y="202" type="qcurve" smooth="yes"/>
      <point x="120" y="202"/>
      <point x="155" y="168"/>
      <point x="155" y="143" type="qcurve" smooth="yes"/>
      <point x="155" y="109"/>
      <point x="135" y="59"/>
      <point x="108" y="27"/>
      <point x="88" y="11"/>
      <point x="88" y="11" type="qcurve"/>
    </contour>
    <contour>
      <point x="157" y="385" type="qcurve" smooth="yes"/>
      <point x="157" y="360"/>
      <point x="121" y="324"/>
      <point x="96" y="324" type="qcurve" smooth="yes"/>
      <point x="71" y="324"/>
      <point x="38" y="360"/>
      <point x="38" y="385" type="qcurve" smooth="yes"/>
      <point x="38" y="409"/>
      <point x="71" y="444"/>
      <point x="96" y="444" type="qcurve" smooth="yes"/>
      <point x="121" y="444"/>
      <point x="157" y="409"/>
    </contour>
  </outline>
</glyph>
<glyph name="question" format="1">
  <advance width="426"/>
  <unicode hex="003F"/>
  <outline>
    <contour>
      <point x="26" y="531" type="line"/>
      <point x="26" y="592"/>
      <point x="79" y="670"/>
      <point x="162" y="708"/>
      <point x="206" y="708" type="qcurve" smooth="yes"/>
      <point x="258" y="708"/>
      <point x="344" y="662"/>
      <point x="396" y="578"/>
      <point x="396" y="521" type="qcurve" smooth="yes"/>
      <point x="396" y="472"/>
      <point x="350" y="401"/>
      <point x="318" y="365" type="qcurve" smooth="yes"/>
      <point x="298" y="343"/>
      <point x="272" y="309"/>
      <point x="257" y="276"/>
      <point x="249" y="237"/>
      <point x="248" y="210" type="qcurve"/>
      <point x="248" y="197"/>
      <point x="248" y="169"/>
      <point x="248" y="138"/>
      <point x="248" y="119" type="qcurve"/>
      <point x="139" y="119" type="line"/>
      <point x="139" y="212" type="line" smooth="yes"/>
      <point x="139" y="244"/>
      <point x="152" y="298"/>
      <point x="174" y="344"/>
      <point x="201" y="383"/>
      <point x="215" y="400" type="qcurve" smooth="yes"/>
      <point x="233" y="422"/>
      <point x="265" y="462"/>
      <point x="285" y="503"/>
      <point x="285" y="525" type="qcurve" smooth="yes"/>
      <point x="285" y="545"/>
      <point x="266" y="581"/>
      <point x="231" y="603"/>
      <point x="207" y="603" type="qcurve" smooth="yes"/>
      <point x="190" y="603"/>
      <point x="158" y="587"/>
      <point x="139" y="556"/>
      <point x="139" y="531" type="qcurve"/>
    </contour>
    <contour>
      <point x="194" y="103" type="qcurve" smooth="yes"/>
      <point x="219" y="103"/>
      <point x="253" y="68"/>
      <point x="253" y="43" type="qcurve" smooth="yes"/>
      <point x="253" y="18"/>
      <point x="219" y="-17"/>
      <point x="194" y="-17" type="qcurve" smooth="yes"/>
      <point x="169" y="-17"/>
      <point x="134" y="18"/>
      <point x="134" y="43" type="qcurve" smooth="yes"/>
      <point x="134" y="68"/>
      <point x="169" y="103"/>
    </contour>
  </outline>
</glyph>
<glyph name="at" format="1">
  <advance width="817"/>
  <unicode hex="0040"/>
  <outline>
    <contour>
      <point x="788" y="415" type="line"/>
      <point x="768" y="405"/>
      <point x="749" y="382"/>
      <point x="744" y="354"/>
      <point x="744" y="335" type="qcurve" smooth="yes"/>
      <point x="744" y="178" type="line" smooth="yes"/>
      <point x="744" y="126"/>
      <point x="707" y="28"/>
      <point x="625" y="-49"/>
      <point x="491" y="-94"/>
      <point x="394" y="-94" type="qcurve" smooth="yes"/>
      <point x="315" y="-94"/>
      <point x="182" y="-59"/>
      <point x="86" y="10"/>
      <point x="33" y="114"/>
      <point x="33" y="184" type="qcurve" smooth="yes"/>
      <point x="33" y="222"/>
      <point x="33" y="291"/>
      <point x="33" y="323" type="qcurve" smooth="yes"/>
      <point x="33" y="423"/>
      <point x="98" y="546"/>
      <point x="222" y="604"/>
      <point x="310" y="604" type="qcurve" smooth="yes"/>
      <point x="381" y="604"/>
      <point x="491" y="579"/>
      <point x="555" y="510"/>
      <point x="555" y="443" type="qcurve"/>
      <point x="616" y="443" type="line"/>
      <point x="589" y="345" type="line"/>
      <point x="558" y="345" type="line"/>
      <point x="558" y="322"/>
      <point x="558" y="276"/>
      <point x="558" y="231"/>
      <point x="558" y="185"/>
      <point x="558" y="139"/>
      <point x="558" y="93"/>
      <point x="558" y="70" type="qcurve"/>
      <point x="558" y="70"/>
      <point x="519" y="67"/>
      <point x="458" y="64"/>
      <point x="390" y="61"/>
      <point x="360" y="61" type="qcurve" smooth="yes"/>
      <point x="314" y="61"/>
      <point x="252" y="89"/>
      <point x="215" y="137"/>
      <point x="199" y="199"/>
      <point x="199" y="234" type="qcurve" smooth="yes"/>
      <point x="199" y="285" type="line"/>
      <point x="201" y="343"/>
      <point x="237" y="412"/>
      <point x="299" y="443"/>
      <point x="338" y="443" type="qcurve" smooth="yes"/>
      <point x="341" y="443"/>
      <point x="365" y="443"/>
      <point x="397" y="443"/>
      <point x="428" y="443"/>
      <point x="449" y="443"/>
      <point x="449" y="443" type="qcurve"/>
      <point x="449" y="483"/>
      <point x="378" y="504"/>
      <point x="314" y="504" type="qcurve" smooth="yes"/>
      <point x="259" y="504"/>
      <point x="189" y="481"/>
      <point x="151" y="437"/>
      <point x="136" y="372"/>
      <point x="136" y="330" type="qcurve" smooth="yes"/>
      <point x="136" y="304"/>
      <point x="136" y="252"/>
      <point x="136" y="226" type="qcurve" smooth="yes"/>
      <point x="136" y="148"/>
      <point x="188" y="51"/>
      <point x="304" y="5"/>
      <point x="398" y="5" type="qcurve" smooth="yes"/>
      <point x="460" y="5"/>
      <point x="551" y="25"/>
      <point x="613" y="64"/>
      <point x="643" y="123"/>
      <point x="643" y="162" type="qcurve" smooth="yes"/>
      <point x="643" y="167"/>
      <point x="643" y="205"/>
      <point x="643" y="255"/>
      <point x="643" y="306"/>
      <point x="643" y="343"/>
      <point x="643" y="348" type="qcurve" smooth="yes"/>
      <point x="643" y="382"/>
      <point x="661" y="436"/>
      <point x="710" y="475"/>
      <point x="757" y="484" type="qcurve"/>
    </contour>
    <contour>
      <point x="366" y="345" type="qcurve"/>
      <point x="355" y="345"/>
      <point x="328" y="334"/>
      <point x="309" y="307"/>
      <point x="309" y="282" type="qcurve" smooth="yes"/>
      <point x="309" y="233" type="line" smooth="yes"/>
      <point x="309" y="184"/>
      <point x="345" y="153"/>
      <point x="379" y="153" type="qcurve" smooth="yes"/>
      <point x="388" y="153"/>
      <point x="405" y="153"/>
      <point x="423" y="154"/>
      <point x="442" y="155"/>
      <point x="452" y="156" type="qcurve"/>
      <point x="452" y="345" type="line"/>
      <point x="443" y="345"/>
      <point x="421" y="345"/>
      <point x="398" y="345"/>
      <point x="379" y="345"/>
      <point x="367" y="345"/>
    </contour>
  </outline>
</glyph>
<glyph name="F" format="1">
  <advance width="394"/>
  <unicode hex="0046"/>
  <outline>
    <contour>
      <point x="375" y="698" type="line"/>
      <point x="375" y="588" type="line"/>
      <point x="151" y="588" type="line"/>
      <point x="151" y="413" type="line"/>
      <point x="288" y="413" type="line"/>
      <point x="253" y="308" type="line"/>
      <point x="151" y="308" type="line"/>
      <point x="151" y="0" type="line"/>
      <point x="41" y="0" type="line"/>
      <point x="41" y="698" type="line"/>
    </contour>
  </outline>
</glyph>
<glyph name="I" format="1">
  <advance width="239"/>
  <unicode hex="0049"/>
    <anchor name="top" x="119" y="735"/>
    <anchor name="tonos" x="39" y="700"/>
    <anchor name="ogonek" x="118" y="0"/>
  <outline>
    <contour>
      <point x="23" y="593" type="line"/>
      <point x="23" y="698" type="line"/>
      <point x="196" y="698" type="line"/>
      <point x="196" y="0" type="line"/>
      <point x="86" y="0" type="line"/>
      <point x="86" y="591" type="line"/>
    </contour>
    <contour>
      <point x="119" y="735" type="move" name="top"/>
    </contour>
    <contour>
      <point x="39" y="700" type="move" name="tonos"/>
    </contour>
    <contour>
      <point x="118" y="0" type="move" name="ogonek"/>
    </contour>
  </outline>
</glyph>
<glyph name="M" format="1">
  <advance width="620"/>
  <unicode hex="004D"/>
  <outline>
    <contour>
      <point x="151" y="698" type="line"/>
      <point x="308" y="207" type="line"/>
      <point x="467" y="698" type="line"/>
      <point x="577" y="698" type="line"/>
      <point x="577" y="0" type="line"/>
      <point x="467" y="0" type="line"/>
      <point x="467" y="370" type="line"/>
      <point x="350" y="0" type="line"/>
      <point x="267" y="0" type="line"/>
      <point x="151" y="369" type="line"/>
      <point x="151" y="0" type="line"/>
      <point x="41" y="0" type="line"/>
      <point x="41" y="698" type="line"/>
    </contour>
  </outline>
</glyph>
<glyph name="R" format="1">
  <advance width="511"/>
  <unicode hex="0052"/>
    <anchor name="top" x="255" y="735"/>
    <anchor name="bottom" x="255" y="0"/>
  <outline>
    <contour>
      <point x="258" y="698" type="line" smooth="yes"/>
      <point x="297" y="698"/>
      <point x="375" y="676"/>
      <point x="438" y="621"/>
      <point x="476" y="525"/>
      <point x="476" y="451" type="qcurve" smooth="yes"/>
      <point x="476" y="363"/>
      <point x="431" y="258"/>
      <point x="395" y="232" type="qcurve"/>
      <point x="480" y="0" type="line"/>
      <point x="363" y="0" type="line"/>
      <point x="294" y="196" type="line"/>
      <point x="285" y="195"/>
      <point x="267" y="195"/>
      <point x="258" y="195" type="qcurve" smooth="yes"/>
      <point x="151" y="195" type="line"/>
      <point x="151" y="0" type="line"/>
      <point x="41" y="0" type="line"/>
      <point x="41" y="698" type="line"/>
    </contour>
    <contour>
      <point x="217" y="300" type="line" smooth="yes"/>
      <point x="269" y="300"/>
      <point x="334" y="320"/>
      <point x="365" y="384"/>
      <point x="365" y="451" type="qcurve" smooth="yes"/>
      <point x="365" y="514"/>
      <point x="334" y="572"/>
      <point x="268" y="588"/>
      <point x="217" y="588" type="qcurve" smooth="yes"/>
      <point x="151" y="588" type="line"/>
      <point x="151" y="300" type="line"/>
    </contour>
    <contour>
      <point x="255" y="735" type="move" name="top"/>
    </contour>
    <contour>
      <point x="255" y="0" type="move" name="bottom"/>
    </contour>
  </outline>
</glyph>
<glyph name="T" format="1">
  <advance width="431"/>
  <unicode hex="0054"/>
    <anchor name="bottom" x="215" y="0"/>
    <anchor name="top" x="215" y="735"/>
  <outline>
    <contour>
      <point x="268" y="587" type="line"/>
      <point x="268" y="0" type="line"/>
      <point x="158" y="0" type="line"/>
      <point x="158" y="587" type="line"/>
      <point x="13" y="587" type="line"/>
      <point x="13" y="698" type="line"/>
      <point x="416" y="698" type="line"/>
      <point x="416" y="587" type="line"/>
    </contour>
    <contour>
      <point x="215" y="0" type="move" name="bottom"/>
    </contour>
    <contour>
      <point x="215" y="735" type="move" name="top"/>
    </contour>
  </outline>
</glyph>
<glyph name="f" format="1">
  <advance width="278"/>
  <unicode hex="0066"/>
  <outline>
    <contour>
      <point x="231" y="606" type="line"/>
      <point x="223" y="608"/>
      <point x="202" y="612"/>
      <point x="192" y="612" type="qcurve" smooth="yes"/>
      <point x="179" y="612"/>
      <point x="162" y="600"/>
      <point x="153" y="576"/>
      <point x="153" y="558" type="qcurve" smooth="yes"/>
      <point x="153" y="499" type="line"/>
      <point x="240" y="499" type="line"/>
      <point x="216" y="396" type="line"/>
      <point x="153" y="396" type="line"/>
      <point x="153" y="0" type="line"/>
      <point x="40" y="0" type="line"/>
      <point x="40" y="548" type="line" smooth="yes"/>
      <point x="40" y="604"/>
      <point x="80" y="676"/>
      <point x="147" y="711"/>
      <point x="187" y="711" type="qcurve" smooth="yes"/>
      <point x="201" y="711"/>
      <point x="235" y="708"/>
      <point x="249" y="706" type="qcurve"/>
    </contour>
  </outline>
</glyph>
<glyph name="o" format="1">
  <advance width="432"/>
  <unicode hex="006F"/>
    <anchor name="top" x="216" y="545"/>
    <anchor name="tonos" x="216" y="545"/>
  <outline>
    <contour>
      <point x="400" y="184" type="line" smooth="yes"/>
      <point x="400" y="99"/>
      <point x="311" y="-10"/>
      <point x="218" y="-10" type="qcurve" smooth="yes"/>
      <point x="152" y="-10"/>
      <point x="70" y="45"/>
      <point x="31" y="133"/>
      <point x="31" y="184" type="qcurve" smooth="yes"/>
      <point x="31" y="316" type="line" smooth="yes"/>
      <point x="31" y="411"/>
      <point x="127" y="510"/>
      <point x="218" y="510" type="qcurve" smooth="yes"/>
      <point x="305" y="510"/>
      <point x="400" y="407"/>
      <point x="400" y="316" type="qcurve" smooth="yes"/>
    </contour>
    <contour>
      <point x="287" y="322" type="line" smooth="yes"/>
      <point x="287" y="358"/>
      <point x="252" y="400"/>
      <point x="217" y="400" type="qcurve" smooth="yes"/>
      <point x="181" y="400"/>
      <point x="142" y="360"/>
      <point x="142" y="322" type="qcurve" smooth="yes"/>
      <point x="142" y="176" type="line" smooth="yes"/>
      <point x="142" y="156"/>
      <point x="157" y="120"/>
      <point x="191" y="98"/>
      <point x="217" y="98" type="qcurve" smooth="yes"/>
      <point x="242" y="98"/>
      <point x="273" y="118"/>
      <point x="287" y="154"/>
      <point x="287" y="176" type="qcurve" smooth="yes"/>
    </contour>
    <contour>
      <point x="216" y="545" type="move" name="top"/>
    </contour>
    <contour>
      <point x="216" y="545" type="move" name="tonos"/>
    </contour>
  </outline>
</glyph>
<glyph name="t" format="1">
  <advance width="276"/>
  <unicode hex="0074"/>
    <anchor name="bottom" x="138" y="0"/>
    <anchor name="top" x="138" y="735"/>
  <outline>
    <contour>
      <point x="152" y="132" type="line" smooth="yes"/>
      <point x="152" y="98"/>
      <point x="190" y="75"/>
      <point x="225" y="75" type="qcurve"/>
      <point x="192" y="-13" type="line"/>
      <point x="116" y="-11"/>
      <point x="40" y="61"/>
      <point x="40" y="132" type="qcurve" smooth="yes"/>
      <point x="40" y="698" type="line"/>
      <point x="152" y="698" type="line"/>
      <point x="152" y="499" type="line"/>
      <point x="247" y="499" type="line"/>
      <point x="224" y="398" type="line"/>
      <point x="152" y="398" type="line"/>
    </contour>
    <contour>
      <point x="138" y="0" type="move" name="bottom"/>
    </contour>
    <contour>
      <point x="138" y="735" type="move" name="top"/>
    </contour>
  </outline>
</glyph>
<glyph name="u" format="1">
  <advance width="446"/>
  <unicode hex="0075"/>
    <anchor name="top" x="223" y="545"/>
    <anchor name="ogonek" x="222" y="0"/>
  <outline>
    <contour>
      <point x="296" y="26" type="line"/>
      <point x="286" y="16"/>
      <point x="229" y="-7"/>
      <point x="197" y="-7" type="qcurve" smooth="yes"/>
      <point x="168" y="-7"/>
      <point x="111" y="9"/>
      <point x="65" y="45"/>
      <point x="37" y="109"/>
      <point x="37" y="157" type="qcurve" smooth="yes"/>
      <point x="37" y="501" type="line"/>
      <point x="148" y="501" type="line"/>
      <point x="148" y="159" type="line" smooth="yes"/>
      <point x="148" y="142"/>
      <point x="165" y="112"/>
      <point x="196" y="94"/>
      <point x="216" y="94" type="qcurve" smooth="yes"/>
      <point x="239" y="94"/>
      <point x="275" y="115"/>
      <point x="296" y="152"/>
      <point x="296" y="175" type="qcurve" smooth="yes"/>
      <point x="296" y="501" type="line"/>
      <point x="406" y="501" type="line"/>
      <point x="406" y="0" type="line"/>
      <point x="296" y="0" type="line"/>
    </contour>
    <contour>
      <point x="223" y="545" type="move" name="top"/>
    </contour>
    <contour>
      <point x="222" y="0" type="move" name="ogonek"/>
    </contour>
  </outline>
</glyph>
<glyph name="sterling" format="1">
  <advance width="432"/>
  <unicode hex="00A3"/>
  <outline>
    <contour>
      <point x="135" y="100" type="line"/>
      <point x="146" y="102"/>
      <point x="168" y="109"/>
      <point x="190" y="122"/>
      <point x="198" y="131" type="qcurve" smooth="yes"/>
      <point x="222" y="160"/>
      <point x="226" y="226"/>
      <point x="202" y="293"/>
      <point x="183" y="323" type="qcurve" smooth="yes"/>
      <point x="181" y="327"/>
      <point x="174" y="335"/>
      <point x="172" y="340" type="qcurve"/>
      <point x="36" y="340" type="line"/>
      <point x="36" y="443" type="line"/>
      <point x="105" y="443" type="line"/>
      <point x="102" y="448"/>
      <point x="96" y="457"/>
      <point x="93" y="463" type="qcurve" smooth="yes"/>
      <point x="84" y="480"/>
      <point x="69" y="515"/>
      <point x="61" y="551"/>
      <point x="61" y="569" type="qcurve"/>
      <point x="64" y="615"/>
      <point x="114" y="677"/>
      <point x="193" y="708"/>
      <point x="238" y="708" type="qcurve" smooth="yes"/>
      <point x="264" y="708"/>
      <point x="337" y="689"/>
      <point x="362" y="672" type="qcurve"/>
      <point x="328" y="582" type="line"/>
      <point x="309" y="591"/>
      <point x="262" y="603"/>
      <point x="233" y="603" type="qcurve" smooth="yes"/>
      <point x="217" y="603"/>
      <point x="179" y="587"/>
      <point x="179" y="565" type="qcurve" smooth="yes"/>
      <point x="179" y="552"/>
      <point x="197" y="505"/>
      <point x="216" y="476" type="qcurve" smooth="yes"/>
      <point x="221" y="468"/>
      <point x="235" y="451"/>
      <point x="242" y="443" type="qcurve"/>
      <point x="396" y="443" type="line"/>
      <point x="396" y="340" type="line"/>
      <point x="306" y="340" type="line"/>
      <point x="311" y="333"/>
      <point x="317" y="319"/>
      <point x="320" y="311" type="qcurve" smooth="yes"/>
      <point x="337" y="267"/>
      <point x="342" y="168"/>
      <point x="314" y="125" type="qcurve" smooth="yes"/>
      <point x="309" y="118"/>
      <point x="298" y="106"/>
      <point x="292" y="100" type="qcurve"/>
      <point x="396" y="100" type="line"/>
      <point x="396" y="0" type="line"/>
      <point x="36" y="0" type="line"/>
      <point x="36" y="100" type="line"/>
    </contour>
  </outline>
</glyph>
<glyph name="dieresis" format="1">
  <advance width="266"/>
  <unicode hex="00A8"/>
  <outline>
    <contour>
      <point x="54" y="767" type="qcurve" smooth="yes"/>
      <point x="79" y="767"/>
      <point x="113" y="732"/>
      <point x="113" y="708" type="qcurve" smooth="yes"/>
      <point x="113" y="683"/>
      <point x="79" y="648"/>
      <point x="54" y="648" type="qcurve" smooth="yes"/>
      <point x="29" y="648"/>
      <point x="-6" y="683"/>
      <point x="-6" y="708" type="qcurve" smooth="yes"/>
      <point x="-6" y="732"/>
      <point x="29" y="767"/>
    </contour>
    <contour>
      <point x="212" y="767" type="qcurve" smooth="yes"/>
      <point x="237" y="767"/>
      <point x="272" y="732"/>
      <point x="272" y="708" type="qcurve" smooth="yes"/>
      <point x="272" y="683"/>
      <point x="237" y="648"/>
      <point x="212" y="648" type="qcurve" smooth="yes"/>
      <point x="187" y="648"/>
      <point x="152" y="683"/>
      <point x="152" y="708" type="qcurve" smooth="yes"/>
      <point x="152" y="732"/>
      <point x="187" y="767"/>
    </contour>
  </outline>
</glyph>
<glyph name="registered" format="1">
  <advance width="783"/>
  <unicode hex="00AE"/>
  <outline>
    <contour>
      <point x="750" y="185" type="line" smooth="yes"/>
      <point x="750" y="93"/>
      <point x="658" y="-30"/>
      <point x="495" y="-92"/>
      <point x="390" y="-94" type="qcurve"/>
      <point x="285" y="-92"/>
      <point x="124" y="-30"/>
      <point x="32" y="93"/>
      <point x="32" y="185" type="qcurve" smooth="yes"/>
      <point x="32" y="326" type="line" smooth="yes"/>
      <point x="32" y="418"/>
      <point x="124" y="541"/>
      <point x="285" y="603"/>
      <point x="390" y="603" type="qcurve" smooth="yes"/>
      <point x="495" y="603"/>
      <point x="658" y="541"/>
      <point x="750" y="418"/>
      <point x="750" y="326" type="qcurve" smooth="yes"/>
    </contour>
    <contour>
      <point x="648" y="288" type="line" smooth="yes"/>
      <point x="648" y="377"/>
      <point x="595" y="469"/>
      <point x="482" y="502"/>
      <point x="390" y="503" type="qcurve"/>
      <point x="299" y="502"/>
      <point x="186" y="469"/>
      <point x="134" y="377"/>
      <point x="134" y="288" type="qcurve" smooth="yes"/>
      <point x="134" y="222" type="line" smooth="yes"/>
      <point x="134" y="133"/>
      <point x="186" y="41"/>
      <point x="299" y="8"/>
      <point x="390" y="7" type="qcurve"/>
      <point x="482" y="8"/>
      <point x="595" y="41"/>
      <point x="648" y="133"/>
      <point x="648" y="222" type="qcurve" smooth="yes"/>
    </contour>
    <contour>
      <point x="427" y="443" type="line" smooth="yes"/>
      <point x="466" y="443"/>
      <point x="521" y="425"/>
      <point x="555" y="387"/>
      <point x="570" y="326"/>
      <point x="570" y="283" type="qcurve" smooth="yes"/>
      <point x="570" y="233"/>
      <point x="545" y="167"/>
      <point x="519" y="150" type="qcurve"/>
      <point x="572" y="61" type="line"/>
      <point x="446" y="61" type="line"/>
      <point x="415" y="128" type="line"/>
      <point x="341" y="128" type="line"/>
      <point x="341" y="61" type="line"/>
      <point x="231" y="61" type="line"/>
      <point x="231" y="443" type="line"/>
    </contour>
    <contour>
      <point x="419" y="233" type="line" smooth="yes"/>
      <point x="436" y="233"/>
      <point x="461" y="249"/>
      <point x="461" y="283" type="qcurve" smooth="yes"/>
      <point x="461" y="318"/>
      <point x="435" y="333"/>
      <point x="418" y="333" type="qcurve" smooth="yes"/>
      <point x="341" y="333" type="line"/>
      <point x="341" y="233" type="line"/>
    </contour>
  </outline>
</glyph>
<glyph name="mu" format="1">
  <advance width="463"/>
  <unicode hex="00B5"/>
  <outline>
    <contour>
      <point x="408" y="112" type="line" smooth="yes"/>
      <point x="408" y="80"/>
      <point x="420" y="42"/>
      <point x="431" y="25"/>
      <point x="431" y="25" type="qcurve"/>
      <point x="336" y="-1" type="line"/>
      <point x="330" y="2"/>
      <point x="318" y="14"/>
      <point x="310" y="25"/>
      <point x="310" y="25" type="qcurve"/>
      <point x="310" y="16"/>
      <point x="279" y="1"/>
      <point x="242" y="-9"/>
      <point x="232" y="-9" type="qcurve" smooth="yes"/>
      <point x="220" y="-9"/>
      <point x="193" y="-3"/>
      <point x="164" y="13"/>
      <point x="149" y="29" type="qcurve"/>
      <point x="149" y="-210" type="line"/>
      <point x="40" y="-201" type="line"/>
      <point x="40" y="499" type="line"/>
      <point x="149" y="499" type="line"/>
      <point x="149" y="132" type="line" smooth="yes"/>
      <point x="149" y="124"/>
      <point x="170" y="109"/>
      <point x="201" y="98"/>
      <point x="230" y="92"/>
      <point x="237" y="92" type="qcurve" smooth="yes"/>
      <point x="269" y="92"/>
      <point x="297" y="130"/>
      <point x="297" y="158" type="qcurve" smooth="yes"/>
      <point x="297" y="496" type="line"/>
      <point x="408" y="509" type="line"/>
    </contour>
  </outline>
</glyph>
<glyph name="paragraph" format="1">
  <advance width="676"/>
  <unicode hex="00B6"/>
  <outline>
    <contour>
      <point x="247" y="195" type="line" smooth="yes"/>
      <point x="207" y="195"/>
      <point x="130" y="216"/>
      <point x="68" y="270"/>
      <point x="31" y="371"/>
      <point x="31" y="452" type="qcurve" smooth="yes"/>
      <point x="31" y="526"/>
      <point x="69" y="622"/>
      <point x="131" y="677"/>
      <point x="208" y="700"/>
      <point x="247" y="700" type="qcurve" smooth="yes"/>
      <point x="633" y="700" type="line"/>
      <point x="633" y="1" type="line"/>
      <point x="523" y="1" type="line"/>
      <point x="523" y="592" type="line"/>
      <point x="464" y="594" type="line"/>
      <point x="464" y="1" type="line"/>
      <point x="354" y="1" type="line"/>
      <point x="354" y="195" type="line"/>
    </contour>
    <contour>
      <point x="288" y="590" type="line" smooth="yes"/>
      <point x="238" y="590"/>
      <point x="172" y="573"/>
      <point x="141" y="515"/>
      <point x="141" y="452" type="qcurve" smooth="yes"/>
      <point x="141" y="385"/>
      <point x="172" y="320"/>
      <point x="237" y="300"/>
      <point x="288" y="300" type="qcurve" smooth="yes"/>
      <point x="354" y="300" type="line"/>
      <point x="354" y="590" type="line"/>
    </contour>
  </outline>
</glyph>
<glyph name="Thorn" format="1">
  <advance width="465"/>
  <unicode hex="00DE"/>
  <outline>
    <contour>
      <point x="434" y="290" type="line" smooth="yes"/>
      <point x="434" y="217"/>
      <point x="374" y="135"/>
      <point x="321" y="118" type="qcurve" smooth="yes"/>
      <point x="282" y="105"/>
      <point x="195" y="105"/>
      <point x="151" y="113" type="qcurve"/>
      <point x="151" y="0" type="line"/>
      <point x="41" y="0" type="line"/>
      <point x="41" y="698" type="line"/>
      <point x="151" y="698" type="line"/>
      <point x="151" y="608" type="line"/>
      <point x="175" y="616"/>
      <point x="224" y="626"/>
      <point x="249" y="626" type="qcurve" smooth="yes"/>
      <point x="295" y="626"/>
      <point x="380" y="587"/>
      <point x="406" y="543" type="qcurve" smooth="yes"/>
      <point x="420" y="518"/>
      <point x="433" y="468"/>
      <point x="434" y="435" type="qcurve"/>
    </contour>
    <contour>
      <point x="237" y="532" type="qcurve" smooth="yes"/>
      <point x="224" y="532"/>
      <point x="193" y="527"/>
      <point x="164" y="519"/>
      <point x="151" y="514" type="qcurve"/>
      <point x="151" y="206" type="line"/>
      <point x="165" y="203"/>
      <point x="196" y="199"/>
      <point x="229" y="199"/>
      <point x="260" y="204"/>
      <point x="273" y="208" type="qcurve" smooth="yes"/>
      <point x="303" y="217"/>
      <point x="326" y="259"/>
      <point x="326" y="290" type="qcurve"/>
      <point x="325" y="448" type="line"/>
      <point x="325" y="463"/>
      <point x="318" y="487"/>
      <point x="312" y="497" type="qcurve" smooth="yes"/>
      <point x="301" y="514"/>
      <point x="258" y="532"/>
    </contour>
  </outline>
</glyph>
<glyph name="germandbls" format="1">
  <advance width="515"/>
  <unicode hex="00DF"/>
  <outline>
    <contour>
      <point x="150" y="0" type="line"/>
      <point x="123" y="0"/>
      <point x="67" y="0"/>
      <point x="40" y="0" type="qcurve"/>
      <point x="40" y="536" type="line" smooth="yes"/>
      <point x="40" y="594"/>
      <point x="87" y="665"/>
      <point x="161" y="699"/>
      <point x="201" y="700" type="qcurve"/>
      <point x="235" y="700"/>
      <point x="298" y="679"/>
      <point x="345" y="639"/>
      <point x="354" y="610" type="qcurve" smooth="yes"/>
      <point x="365" y="579"/>
      <point x="353" y="505"/>
      <point x="325" y="476" type="qcurve"/>
      <point x="325" y="476"/>
      <point x="315" y="476"/>
      <point x="306" y="476"/>
      <point x="305" y="476" type="qcurve"/>
      <point x="300" y="468"/>
      <point x="294" y="452"/>
      <point x="294" y="444" type="qcurve" smooth="yes"/>
      <point x="294" y="419"/>
      <point x="341" y="369"/>
      <point x="404" y="317"/>
      <point x="429" y="288" type="qcurve" smooth="yes"/>
      <point x="446" y="270"/>
      <point x="472" y="226"/>
      <point x="487" y="177"/>
      <point x="487" y="148" type="qcurve" smooth="yes"/>
      <point x="487" y="101"/>
      <point x="440" y="28"/>
      <point x="362" y="-12"/>
      <point x="313" y="-12" type="qcurve" smooth="yes"/>
      <point x="286" y="-12"/>
      <point x="235" y="0"/>
      <point x="190" y="22"/>
      <point x="171" y="37" type="qcurve"/>
      <point x="183" y="63"/>
      <point x="207" y="112"/>
      <point x="219" y="137" type="qcurve"/>
      <point x="236" y="122"/>
      <point x="267" y="103"/>
      <point x="297" y="94"/>
      <point x="310" y="94" type="qcurve" smooth="yes"/>
      <point x="326" y="94"/>
      <point x="354" y="108"/>
      <point x="371" y="134"/>
      <point x="371" y="152" type="qcurve" smooth="yes"/>
      <point x="371" y="165"/>
      <point x="361" y="194"/>
      <point x="341" y="226"/>
      <point x="325" y="243" type="qcurve" smooth="yes"/>
      <point x="305" y="264"/>
      <point x="255" y="307"/>
      <point x="210" y="355"/>
      <point x="181" y="409"/>
      <point x="181" y="439" type="qcurve" smooth="yes"/>
      <point x="181" y="455"/>
      <point x="191" y="488"/>
      <point x="202" y="506" type="qcurve"/>
      <point x="227" y="506"/>
      <point x="253" y="538"/>
      <point x="253" y="555" type="qcurve" smooth="yes"/>
      <point x="253" y="566"/>
      <point x="244" y="584"/>
      <point x="225" y="595"/>
      <point x="210" y="595" type="qcurve" smooth="yes"/>
      <point x="150" y="595"/>
      <point x="150" y="505" type="qcurve" smooth="yes"/>
    </contour>
  </outline>
</glyph>
<glyph name="thorn" format="1">
  <advance width="446"/>
  <unicode hex="00FE"/>
  <outline>
    <contour>
      <point x="151" y="491" type="line"/>
      <point x="168" y="499"/>
      <point x="210" y="508"/>
      <point x="229" y="508" type="qcurve" smooth="yes"/>
      <point x="291" y="508"/>
      <point x="376" y="459"/>
      <point x="419" y="373"/>
      <point x="419" y="315" type="qcurve" smooth="yes"/>
      <point x="419" y="252"/>
      <point x="373" y="163"/>
      <point x="290" y="116"/>
      <point x="234" y="116" type="qcurve" smooth="yes"/>
      <point x="209" y="116"/>
      <point x="166" y="128"/>
      <point x="151" y="139" type="qcurve"/>
      <point x="151" y="0" type="line"/>
      <point x="41" y="0" type="line"/>
      <point x="41" y="700" type="line"/>
      <point x="151" y="700" type="line"/>
    </contour>
    <contour>
      <point x="234" y="404" type="qcurve" smooth="yes"/>
      <point x="213" y="404"/>
      <point x="174" y="382"/>
      <point x="150" y="344"/>
      <point x="150" y="318" type="qcurve" smooth="yes"/>
      <point x="150" y="284"/>
      <point x="173" y="240"/>
      <point x="211" y="220"/>
      <point x="234" y="220" type="qcurve" smooth="yes"/>
      <point x="254" y="220"/>
      <point x="288" y="240"/>
      <point x="310" y="282"/>
      <point x="310" y="316" type="qcurve" smooth="yes"/>
      <point x="310" y="338"/>
      <point x="294" y="378"/>
      <point x="260" y="404"/>
    </contour>
  </outline>
</glyph>
<glyph name="dslash" format="1">
  <advance width="459"/>
  <unicode hex="0111"/>
  <outline>
    <contour>
      <point x="458" y="551" type="line"/>
      <point x="458" y="640" type="line"/>
      <point x="224" y="640" type="line"/>
      <point x="224" y="551" type="line"/>
    </contour>
    <component base="d"/>
  </outline>
</glyph>
<glyph name="hbar" format="1">
  <advance width="476"/>
  <unicode hex="0127"/>
  <outline>
    <contour>
      <point x="264" y="548" type="line"/>
      <point x="29" y="548" type="line"/>
      <point x="29" y="639" type="line"/>
      <point x="264" y="639" type="line"/>
    </contour>
    <contour>
      <point x="180" y="476" type="line"/>
      <point x="193" y="485"/>
      <point x="249" y="509"/>
      <point x="280" y="509" type="qcurve" smooth="yes"/>
      <point x="310" y="509"/>
      <point x="367" y="493"/>
      <point x="413" y="457"/>
      <point x="441" y="393"/>
      <point x="441" y="345" type="qcurve" smooth="yes"/>
      <point x="441" y="0" type="line"/>
      <point x="332" y="0" type="line"/>
      <point x="332" y="343" type="line" smooth="yes"/>
      <point x="332" y="362"/>
      <point x="314" y="392"/>
      <point x="281" y="409"/>
      <point x="260" y="409" type="qcurve" smooth="yes"/>
      <point x="243" y="409"/>
      <point x="204" y="398"/>
      <point x="180" y="386" type="qcurve"/>
      <point x="180" y="0" type="line"/>
      <point x="71" y="0" type="line"/>
      <point x="71" y="698" type="line"/>
      <point x="180" y="698" type="line"/>
    </contour>
  </outline>
</glyph>
<glyph name="dotlessi" format="1">
  <advance width="189"/>
  <unicode hex="0131"/>
    <anchor name="top" x="94" y="735"/>
    <anchor name="tonos" x="31" y="700"/>
    <anchor name="ogonek" x="94" y="0"/>
  <outline>
    <contour>
      <point x="39" y="0" type="line"/>
      <point x="39" y="499" type="line"/>
      <point x="149" y="499" type="line"/>
      <point x="149" y="0" type="line"/>
    </contour>
    <contour>
      <point x="94" y="735" type="move" name="top"/>
    </contour>
    <contour>
      <point x="31" y="700" type="move" name="tonos"/>
    </contour>
    <contour>
      <point x="94" y="0" type="move" name="ogonek"/>
    </contour>
  </outline>
</glyph>
<glyph name="ij" format="1">
  <advance width="451"/>
  <unicode hex="0133"/>
  <outline>
    <contour>
      <point x="99" y="708" type="qcurve" smooth="yes"/>
      <point x="124" y="708"/>
      <point x="159" y="675"/>
      <point x="159" y="650" type="qcurve" smooth="yes"/>
      <point x="159" y="625"/>
      <point x="124" y="590"/>
      <point x="99" y="590" type="qcurve" smooth="yes"/>
      <point x="74" y="590"/>
      <point x="40" y="625"/>
      <point x="40" y="650" type="qcurve" smooth="yes"/>
      <point x="40" y="675"/>
      <point x="74" y="708"/>
    </contour>
    <contour>
      <point x="420" y="649" type="qcurve" smooth="yes"/>
      <point x="420" y="625"/>
      <point x="384" y="590"/>
      <point x="359" y="590" type="qcurve" smooth="yes"/>
      <point x="334" y="590"/>
      <point x="300" y="625"/>
      <point x="300" y="649" type="qcurve" smooth="yes"/>
      <point x="300" y="674"/>
      <point x="334" y="708"/>
      <point x="359" y="708" type="qcurve" smooth="yes"/>
      <point x="384" y="708"/>
      <point x="420" y="674"/>
    </contour>
    <contour>
      <point x="303" y="501" type="line"/>
      <point x="413" y="501" type="line"/>
      <point x="413" y="-59" type="line" smooth="yes"/>
      <point x="413" y="-102"/>
      <point x="390" y="-162"/>
      <point x="365" y="-179" type="qcurve" smooth="yes"/>
      <point x="345" y="-194"/>
      <point x="287" y="-213"/>
      <point x="262" y="-213" type="qcurve"/>
      <point x="233" y="-124" type="line"/>
      <point x="246" y="-124"/>
      <point x="273" y="-111"/>
      <point x="283" y="-101" type="qcurve" smooth="yes"/>
      <point x="303" y="-83"/>
      <point x="303" y="-48" type="qcurve" smooth="yes"/>
      <point x="303" y="28" type="line"/>
      <point x="293" y="17"/>
      <point x="235" y="-6"/>
      <point x="203" y="-6" type="qcurve" smooth="yes"/>
      <point x="173" y="-6"/>
      <point x="116" y="10"/>
      <point x="70" y="46"/>
      <point x="43" y="110"/>
      <point x="43" y="158" type="qcurve" smooth="yes"/>
      <point x="43" y="501" type="line"/>
      <point x="154" y="501" type="line"/>
      <point x="154" y="161" type="line" smooth="yes"/>
      <point x="154" y="142"/>
      <point x="171" y="112"/>
      <point x="203" y="94"/>
      <point x="223" y="94" type="qcurve" smooth="yes"/>
      <point x="246" y="94"/>
      <point x="282" y="116"/>
      <point x="303" y="153"/>
      <point x="303" y="176" type="qcurve" smooth="yes"/>
    </contour>
  </outline>
</glyph>
<glyph name="eng" format="1">
  <advance width="445"/>
  <unicode hex="014B"/>
  <outline>
    <contour>
      <point x="408" y="-44" type="line" smooth="yes"/>
      <point x="408" y="-86"/>
      <point x="383" y="-141"/>
      <point x="361" y="-160" type="qcurve" smooth="yes"/>
      <point x="341" y="-179"/>
      <point x="278" y="-198"/>
      <point x="257" y="-198" type="qcurve"/>
      <point x="227" y="-109" type="line"/>
      <point x="244" y="-106"/>
      <point x="268" y="-96"/>
      <point x="279" y="-86" type="qcurve" smooth="yes"/>
      <point x="287" y="-77"/>
      <point x="298" y="-51"/>
      <point x="298" y="-33" type="qcurve" smooth="yes"/>
      <point x="298" y="343" type="line" smooth="yes"/>
      <point x="298" y="362"/>
      <point x="283" y="391"/>
      <point x="254" y="409"/>
      <point x="232" y="409" type="qcurve" smooth="yes"/>
      <point x="213" y="409"/>
      <point x="174" y="397"/>
      <point x="148" y="386" type="qcurve"/>
      <point x="148" y="0" type="line"/>
      <point x="39" y="0" type="line"/>
      <point x="39" y="499" type="line"/>
      <point x="148" y="499" type="line"/>
      <point x="148" y="476" type="line"/>
      <point x="161" y="485"/>
      <point x="217" y="509"/>
      <point x="248" y="509" type="qcurve" smooth="yes"/>
      <point x="278" y="509"/>
      <point x="335" y="493"/>
      <point x="381" y="457"/>
      <point x="408" y="393"/>
      <point x="408" y="345" type="qcurve" smooth="yes"/>
    </contour>
  </outline>
</glyph>
<glyph name="dotaccent" format="1">
  <advance width="266"/>
  <unicode hex="02D9"/>
  <outline>
    <contour>
      <point x="133" y="774" type="qcurve" smooth="yes"/>
      <point x="158" y="774"/>
      <point x="192" y="741"/>
      <point x="192" y="716" type="qcurve" smooth="yes"/>
      <point x="192" y="691"/>
      <point x="158" y="656"/>
      <point x="133" y="656" type="qcurve" smooth="yes"/>
      <point x="108" y="656"/>
      <point x="73" y="691"/>
      <point x="73" y="716" type="qcurve" smooth="yes"/>
      <point x="73" y="741"/>
      <point x="108" y="774"/>
    </contour>
  </outline>
</glyph>
<glyph name="tilde" format="1">
  <advance width="266"/>
  <unicode hex="02DC"/>
  <outline>
    <contour>
      <point x="196" y="708" type="line"/>
      <point x="263" y="708" type="line"/>
      <point x="263" y="700" type="line" smooth="yes"/>
      <point x="263" y="662"/>
      <point x="222" y="605"/>
      <point x="181" y="605" type="qcurve" smooth="yes"/>
      <point x="171" y="605"/>
      <point x="152" y="611"/>
      <point x="143" y="615" type="qcurve" smooth="yes"/>
      <point x="139" y="617"/>
      <point x="115" y="632"/>
      <point x="110" y="635" type="qcurve" smooth="yes"/>
      <point x="103" y="640"/>
      <point x="89" y="645"/>
      <point x="84" y="645" type="qcurve" smooth="yes"/>
      <point x="72" y="645"/>
      <point x="69" y="629"/>
      <point x="69" y="619" type="qcurve" smooth="yes"/>
      <point x="69" y="611" type="line"/>
      <point x="2" y="611" type="line"/>
      <point x="2" y="619" type="line" smooth="yes"/>
      <point x="2" y="648"/>
      <point x="26" y="699"/>
      <point x="56" y="708" type="qcurve" smooth="yes"/>
      <point x="73" y="713"/>
      <point x="107" y="710"/>
      <point x="123" y="702" type="qcurve" smooth="yes"/>
      <point x="132" y="698"/>
      <point x="144" y="690"/>
      <point x="154" y="684" type="qcurve" smooth="yes"/>
      <point x="159" y="681"/>
      <point x="176" y="672"/>
      <point x="182" y="672" type="qcurve" smooth="yes"/>
      <point x="193" y="672"/>
      <point x="196" y="691"/>
      <point x="196" y="700" type="qcurve" smooth="yes"/>
    </contour>
  </outline>
</glyph>
<glyph name="hungarumlaut" format="1">
  <advance width="266"/>
  <unicode hex="02DD"/>
  <outline>
    <contour>
      <point x="157" y="645" type="qcurve" smooth="yes"/>
      <point x="99" y="569" type="line"/>
      <point x="55" y="569" type="line"/>
      <point x="85" y="685" type="line" smooth="yes"/>
      <point x="90" y="704"/>
      <point x="131" y="727"/>
      <point x="150" y="716" type="qcurve" smooth="yes"/>
      <point x="170" y="706"/>
      <point x="171" y="662"/>
    </contour>
    <contour>
      <point x="270" y="645" type="qcurve" smooth="yes"/>
      <point x="211" y="569" type="line"/>
      <point x="167" y="569" type="line"/>
      <point x="197" y="685" type="line" smooth="yes"/>
      <point x="202" y="705"/>
      <point x="241" y="727"/>
      <point x="262" y="716" type="qcurve" smooth="yes"/>
      <point x="282" y="706"/>
      <point x="284" y="662"/>
    </contour>
  </outline>
</glyph>
<glyph name="tonos" format="1">
  <advance width="266"/>
  <unicode hex="0384"/>
  <outline>
    <contour>
      <point x="177" y="671" type="qcurve" smooth="yes"/>
      <point x="119" y="596" type="line"/>
      <point x="75" y="596" type="line"/>
      <point x="105" y="712" type="line" smooth="yes"/>
      <point x="110" y="732"/>
      <point x="151" y="753"/>
      <point x="170" y="741" type="qcurve"/>
      <point x="189" y="731"/>
      <point x="191" y="688"/>
    </contour>
  </outline>
</glyph>
<glyph name="Lambda" format="1">
  <advance width="548"/>
  <unicode hex="039B"/>
  <outline>
    <contour>
      <point x="271" y="463" type="line"/>
      <point x="146" y="0" type="line"/>
      <point x="22" y="0" type="line"/>
      <point x="222" y="698" type="line"/>
      <point x="323" y="698" type="line"/>
      <point x="527" y="0" type="line"/>
      <point x="400" y="0" type="line"/>
    </contour>
  </outline>
</glyph>
<glyph name="Sigma" format="1">
  <advance width="523"/>
  <unicode hex="03A3"/>
  <outline>
    <contour>
      <point x="316" y="100" type="line" smooth="yes"/>
      <point x="355" y="100"/>
      <point x="401" y="119"/>
      <point x="411" y="150" type="qcurve"/>
      <point x="492" y="106" type="line"/>
      <point x="476" y="50"/>
      <point x="407" y="0"/>
      <point x="348" y="0" type="qcurve" smooth="yes"/>
      <point x="25" y="0" type="line"/>
      <point x="250" y="384" type="line"/>
      <point x="41" y="703" type="line"/>
      <point x="469" y="703" type="line"/>
      <point x="435" y="588" type="line"/>
      <point x="244" y="588" type="line"/>
      <point x="381" y="386" type="line"/>
      <point x="212" y="100" type="line"/>
    </contour>
  </outline>
</glyph>
<glyph name="beta" format="1">
  <advance width="600"/>
  <unicode hex="03B2"/>
  <outline>
    <contour>
      <point x="40" y="521" type="line" smooth="yes"/>
      <point x="40" y="569"/>
      <point x="81" y="652"/>
      <point x="157" y="702"/>
      <point x="209" y="702" type="qcurve" smooth="yes"/>
      <point x="277" y="702"/>
      <point x="352" y="619"/>
      <point x="352" y="554" type="qcurve" smooth="yes"/>
      <point x="352" y="508"/>
      <point x="307" y="429"/>
      <point x="264" y="403" type="qcurve"/>
      <point x="291" y="403" type="line" smooth="yes"/>
      <point x="318" y="403"/>
      <point x="364" y="385"/>
      <point x="396" y="349"/>
      <point x="414" y="293"/>
      <point x="414" y="255" type="qcurve"/>
      <point x="413" y="155" type="line"/>
      <point x="411" y="90"/>
      <point x="359" y="18"/>
      <point x="273" y="-11"/>
      <point x="216" y="-11" type="qcurve" smooth="yes"/>
      <point x="206" y="-11"/>
      <point x="185" y="-10"/>
      <point x="164" y="-9"/>
      <point x="153" y="-8" type="qcurve"/>
      <point x="153" y="-212" type="line"/>
      <point x="40" y="-198" type="line"/>
    </contour>
    <contour>
      <point x="153" y="537" type="qcurve" smooth="yes"/>
      <point x="153" y="406" type="line"/>
      <point x="180" y="431" type="line" smooth="yes"/>
      <point x="209" y="459"/>
      <point x="245" y="516"/>
      <point x="245" y="548" type="qcurve" smooth="yes"/>
      <point x="245" y="568"/>
      <point x="221" y="598"/>
      <point x="202" y="598" type="qcurve" smooth="yes"/>
      <point x="186" y="598"/>
      <point x="164" y="581"/>
      <point x="153" y="554"/>
    </contour>
    <contour>
      <point x="153" y="94" type="line"/>
      <point x="153" y="94"/>
      <point x="166" y="93"/>
      <point x="185" y="92"/>
      <point x="205" y="91"/>
      <point x="212" y="91" type="qcurve" smooth="yes"/>
      <point x="240" y="91"/>
      <point x="275" y="102"/>
      <point x="293" y="124"/>
      <point x="299" y="154"/>
      <point x="299" y="173" type="qcurve" smooth="yes"/>
      <point x="299" y="241" type="line" smooth="yes"/>
      <point x="299" y="260"/>
      <point x="285" y="281"/>
      <point x="261" y="290"/>
      <point x="245" y="290" type="qcurve" smooth="yes"/>
      <point x="234" y="290"/>
      <point x="209" y="285"/>
      <point x="198" y="282" type="qcurve" smooth="yes"/>
      <point x="186" y="278"/>
      <point x="165" y="270"/>
      <point x="153" y="264"/>
      <point x="153" y="264" type="qcurve"/>
    </contour>
  </outline>
</glyph>
<glyph name="gamma" format="1">
  <advance width="515"/>
  <unicode hex="03B3"/>
  <outline>
    <contour>
      <point x="491" y="466" type="qcurve"/>
      <point x="473" y="458"/>
      <point x="446" y="438"/>
      <point x="423" y="404"/>
      <point x="412" y="372" type="qcurve"/>
      <point x="281" y="-55" type="line" smooth="yes"/>
      <point x="271" y="-87"/>
      <point x="248" y="-140"/>
      <point x="213" y="-180"/>
      <point x="159" y="-202"/>
      <point x="119" y="-202" type="qcurve"/>
      <point x="88" y="-116" type="line"/>
      <point x="111" y="-116"/>
      <point x="139" y="-104"/>
      <point x="159" y="-76"/>
      <point x="169" y="-51" type="qcurve"/>
      <point x="192" y="20" type="line"/>
      <point x="177" y="35"/>
      <point x="157" y="60"/>
      <point x="139" y="103"/>
      <point x="126" y="144" type="qcurve" smooth="yes"/>
      <point x="120" y="163"/>
      <point x="105" y="212"/>
      <point x="87" y="274"/>
      <point x="65" y="350"/>
      <point x="38" y="443"/>
      <point x="22" y="499" type="qcurve"/>
      <point x="149" y="499" type="line"/>
      <point x="149" y="499"/>
      <point x="159" y="449"/>
      <point x="176" y="370"/>
      <point x="194" y="280"/>
      <point x="211" y="200"/>
      <point x="222" y="148"/>
      <point x="222" y="147" type="qcurve"/>
      <point x="224" y="143"/>
      <point x="227" y="140"/>
      <point x="227" y="140" type="qcurve"/>
      <point x="227" y="140"/>
      <point x="234" y="165"/>
      <point x="246" y="205"/>
      <point x="259" y="254"/>
      <point x="274" y="303"/>
      <point x="286" y="344"/>
      <point x="290" y="356" type="qcurve" smooth="yes"/>
      <point x="307" y="411"/>
      <point x="341" y="475"/>
      <point x="393" y="510"/>
      <point x="436" y="520" type="qcurve"/>
      <point x="468" y="490"/>
    </contour>
  </outline>
</glyph>
<glyph name="epsilon" format="1">
  <advance width="399"/>
  <unicode hex="03B5"/>
    <anchor name="tonos" x="199" y="545"/>
  <outline>
    <contour>
      <point x="307" y="398" type="line"/>
      <point x="285" y="405"/>
      <point x="239" y="414"/>
      <point x="210" y="414" type="qcurve"/>
      <point x="191" y="412"/>
      <point x="157" y="386"/>
      <point x="157" y="361" type="qcurve" smooth="yes"/>
      <point x="157" y="339"/>
      <point x="197" y="301"/>
      <point x="250" y="301" type="qcurve" smooth="yes"/>
      <point x="303" y="301" type="line"/>
      <point x="272" y="205" type="line"/>
      <point x="211" y="205" type="line"/>
      <point x="190" y="204"/>
      <point x="158" y="192"/>
      <point x="139" y="170"/>
      <point x="139" y="153" type="qcurve" smooth="yes"/>
      <point x="139" y="125"/>
      <point x="189" y="102"/>
      <point x="223" y="101" type="qcurve"/>
      <point x="245" y="101"/>
      <point x="288" y="108"/>
      <point x="328" y="121"/>
      <point x="342" y="129" type="qcurve"/>
      <point x="375" y="23" type="line"/>
      <point x="335" y="6"/>
      <point x="251" y="-11"/>
      <point x="204" y="-11" type="qcurve" smooth="yes"/>
      <point x="145" y="-11"/>
      <point x="67" y="36"/>
      <point x="29" y="109"/>
      <point x="29" y="148" type="qcurve" smooth="yes"/>
      <point x="29" y="188"/>
      <point x="62" y="256"/>
      <point x="93" y="276" type="qcurve"/>
      <point x="77" y="289"/>
      <point x="54" y="328"/>
      <point x="45" y="372"/>
      <point x="49" y="392" type="qcurve"/>
      <point x="52" y="422"/>
      <point x="83" y="474"/>
      <point x="146" y="508"/>
      <point x="195" y="510" type="qcurve"/>
      <point x="222" y="510"/>
      <point x="275" y="503"/>
      <point x="304" y="495" type="qcurve"/>
    </contour>
    <contour>
      <point x="199" y="545" type="move" name="tonos"/>
    </contour>
  </outline>
</glyph>
<glyph name="eta" format="1">
  <advance width="445"/>
  <unicode hex="03B7"/>
    <anchor name="tonos" x="222" y="545"/>
  <outline>
    <contour>
      <point x="298" y="343" type="line" smooth="yes"/>
      <point x="298" y="362"/>
      <point x="283" y="391"/>
      <point x="253" y="409"/>
      <point x="231" y="410" type="qcurve"/>
      <point x="215" y="410"/>
      <point x="173" y="399"/>
      <point x="148" y="386" type="qcurve"/>
      <point x="148" y="0" type="line"/>
      <point x="39" y="0" type="line"/>
      <point x="39" y="499" type="line"/>
      <point x="148" y="499" type="line"/>
      <point x="148" y="476" type="line"/>
      <point x="161" y="485"/>
      <point x="217" y="509"/>
      <point x="248" y="509" type="qcurve" smooth="yes"/>
      <point x="278" y="509"/>
      <point x="334" y="493"/>
      <point x="380" y="457"/>
      <point x="407" y="393"/>
      <point x="407" y="345" type="qcurve" smooth="yes"/>
      <point x="407" y="-210" type="line"/>
      <point x="298" y="-186" type="line"/>
    </contour>
    <contour>
      <point x="222" y="545" type="move" name="tonos"/>
    </contour>
  </outline>
</glyph>
<glyph name="theta" format="1">
  <advance width="444"/>
  <unicode hex="03B8"/>
  <outline>
    <contour>
      <point x="215" y="708" type="qcurve"/>
      <point x="310" y="707"/>
      <point x="407" y="599"/>
      <point x="407" y="504" type="qcurve" smooth="yes"/>
      <point x="407" y="189" type="line" smooth="yes"/>
      <point x="407" y="94"/>
      <point x="315" y="-6"/>
      <point x="221" y="-6" type="qcurve" smooth="yes"/>
      <point x="128" y="-6"/>
      <point x="34" y="96"/>
      <point x="34" y="189" type="qcurve" smooth="yes"/>
      <point x="34" y="287" type="line" smooth="yes"/>
      <point x="34" y="345"/>
      <point x="68" y="412"/>
      <point x="85" y="428" type="qcurve"/>
      <point x="71" y="450"/>
      <point x="53" y="494"/>
      <point x="45" y="536"/>
      <point x="45" y="552" type="qcurve" smooth="yes"/>
      <point x="45" y="596"/>
      <point x="88" y="667"/>
      <point x="165" y="708"/>
    </contour>
    <contour>
      <point x="294" y="505" type="line" smooth="yes"/>
      <point x="294" y="552"/>
      <point x="257" y="601"/>
      <point x="220" y="601" type="qcurve" smooth="yes"/>
      <point x="197" y="601"/>
      <point x="168" y="584"/>
      <point x="154" y="557"/>
      <point x="154" y="540" type="qcurve" smooth="yes"/>
      <point x="154" y="531"/>
      <point x="159" y="502"/>
      <point x="174" y="469"/>
      <point x="204" y="435"/>
      <point x="255" y="404"/>
      <point x="294" y="393" type="qcurve"/>
    </contour>
    <contour>
      <point x="220" y="103" type="qcurve" smooth="yes"/>
      <point x="247" y="103"/>
      <point x="279" y="125"/>
      <point x="294" y="161"/>
      <point x="294" y="182" type="qcurve" smooth="yes"/>
      <point x="294" y="324" type="line"/>
      <point x="253" y="326"/>
      <point x="188" y="345"/>
      <point x="162" y="359" type="qcurve"/>
      <point x="155" y="349"/>
      <point x="148" y="319"/>
      <point x="148" y="293" type="qcurve" smooth="yes"/>
      <point x="148" y="182" type="line" smooth="yes"/>
      <point x="148" y="161"/>
      <point x="163" y="125"/>
      <point x="195" y="103"/>
    </contour>
  </outline>
</glyph>
<glyph name="kappa" format="1">
  <advance width="474"/>
  <unicode hex="03BA"/>
  <outline>
    <contour>
      <point x="357" y="159" type="line"/>
      <point x="385" y="122"/>
      <point x="423" y="97"/>
      <point x="442" y="96" type="qcurve"/>
      <point x="409" y="-1" type="line"/>
      <point x="375" y="-1"/>
      <point x="344" y="16" type="qcurve"/>
      <point x="330" y="26"/>
      <point x="306" y="45"/>
      <point x="298" y="54" type="qcurve" smooth="yes"/>
      <point x="291" y="63"/>
      <point x="270" y="91"/>
      <point x="255" y="110" type="qcurve"/>
      <point x="177" y="219" type="line"/>
      <point x="150" y="195" type="line"/>
      <point x="150" y="0" type="line"/>
      <point x="40" y="0" type="line"/>
      <point x="40" y="510" type="line"/>
      <point x="150" y="498" type="line"/>
      <point x="150" y="333" type="line"/>
      <point x="304" y="499" type="line"/>
      <point x="440" y="499" type="line"/>
      <point x="258" y="300" type="line"/>
    </contour>
  </outline>
</glyph>
<glyph name="rho" format="1">
  <advance width="438"/>
  <unicode hex="03C1"/>
  <outline>
    <contour>
      <point x="405" y="170" type="line" smooth="yes"/>
      <point x="405" y="79"/>
      <point x="319" y="-17"/>
      <point x="236" y="-17" type="qcurve" smooth="yes"/>
      <point x="220" y="-17"/>
      <point x="187" y="-11"/>
      <point x="158" y="0"/>
      <point x="146" y="7" type="qcurve"/>
      <point x="146" y="-218" type="line"/>
      <point x="36" y="-204" type="line"/>
      <point x="36" y="311" type="line" smooth="yes"/>
      <point x="36" y="406"/>
      <point x="133" y="506"/>
      <point x="224" y="506" type="qcurve" smooth="yes"/>
      <point x="310" y="506"/>
      <point x="405" y="402"/>
      <point x="405" y="311" type="qcurve" smooth="yes"/>
    </contour>
    <contour>
      <point x="295" y="317" type="line" smooth="yes"/>
      <point x="295" y="353"/>
      <point x="256" y="396"/>
      <point x="220" y="396" type="qcurve" smooth="yes"/>
      <point x="185" y="396"/>
      <point x="146" y="355"/>
      <point x="146" y="317" type="qcurve" smooth="yes"/>
      <point x="146" y="134" type="line" smooth="yes"/>
      <point x="146" y="116"/>
      <point x="174" y="93"/>
      <point x="214" y="82"/>
      <point x="230" y="82" type="qcurve" smooth="yes"/>
      <point x="262" y="82"/>
      <point x="295" y="121"/>
      <point x="295" y="155" type="qcurve" smooth="yes"/>
    </contour>
  </outline>
</glyph>
<glyph name="sigma" format="1">
  <advance width="494"/>
  <unicode hex="03C3"/>
  <outline>
    <contour>
      <point x="469" y="466" type="line"/>
      <point x="455" y="446"/>
      <point x="423" y="422"/>
      <point x="391" y="409"/>
      <point x="375" y="407" type="qcurve"/>
      <point x="387" y="390"/>
      <point x="400" y="345"/>
      <point x="400" y="316" type="qcurve" smooth="yes"/>
      <point x="400" y="184" type="line" smooth="yes"/>
      <point x="400" y="99"/>
      <point x="312" y="-10"/>
      <point x="218" y="-10" type="qcurve" smooth="yes"/>
      <point x="152" y="-10"/>
      <point x="69" y="45"/>
      <point x="30" y="133"/>
      <point x="30" y="184" type="qcurve" smooth="yes"/>
      <point x="30" y="320" type="line" smooth="yes"/>
      <point x="30" y="394"/>
      <point x="86" y="477"/>
      <point x="172" y="510"/>
      <point x="216" y="510" type="qcurve" smooth="yes"/>
      <point x="247" y="510"/>
      <point x="307" y="502"/>
      <point x="338" y="502" type="qcurve"/>
      <point x="353" y="504"/>
      <point x="397" y="526"/>
      <point x="413" y="542" type="qcurve"/>
    </contour>
    <contour>
      <point x="286" y="322" type="line" smooth="yes"/>
      <point x="286" y="336"/>
      <point x="283" y="361"/>
      <point x="277" y="384"/>
      <point x="268" y="404"/>
      <point x="262" y="413" type="qcurve"/>
      <point x="252" y="415"/>
      <point x="236" y="417"/>
      <point x="226" y="417" type="qcurve" smooth="yes"/>
      <point x="207" y="417"/>
      <point x="167" y="401"/>
      <point x="140" y="363"/>
      <point x="140" y="330" type="qcurve" smooth="yes"/>
      <point x="140" y="176" type="line" smooth="yes"/>
      <point x="140" y="156"/>
      <point x="155" y="120"/>
      <point x="189" y="98"/>
      <point x="215" y="98" type="qcurve" smooth="yes"/>
      <point x="241" y="98"/>
      <point x="272" y="118"/>
      <point x="286" y="154"/>
      <point x="286" y="176" type="qcurve" smooth="yes"/>
    </contour>
  </outline>
</glyph>
<glyph name="chi" format="1">
  <advance width="541"/>
  <unicode hex="03C7"/>
  <outline>
    <contour>
      <point x="441" y="-61" type="line"/>
      <point x="456" y="-100"/>
      <point x="507" y="-140"/>
      <point x="541" y="-140" type="qcurve"/>
      <point x="489" y="-212" type="line"/>
      <point x="449" y="-212"/>
      <point x="383" y="-166"/>
      <point x="358" y="-117" type="qcurve"/>
      <point x="256" y="92" type="line"/>
      <point x="105" y="-204" type="line"/>
      <point x="9" y="-161" type="line"/>
      <point x="200" y="207" type="line"/>
      <point x="52" y="499" type="line"/>
      <point x="171" y="499" type="line"/>
      <point x="258" y="319" type="line"/>
      <point x="351" y="499" type="line"/>
      <point x="475" y="499" type="line"/>
      <point x="314" y="204" type="line"/>
    </contour>
  </outline>
</glyph>
<glyph name="quoteleft" format="1">
  <advance width="176"/>
  <unicode hex="2018"/>
  <outline>
    <contour>
      <point x="121" y="708" type="line"/>
      <point x="114" y="695"/>
      <point x="105" y="665"/>
      <point x="102" y="651" type="qcurve"/>
      <point x="122" y="645"/>
      <point x="147" y="613"/>
      <point x="147" y="593" type="qcurve" smooth="yes"/>
      <point x="147" y="568"/>
      <point x="113" y="532"/>
      <point x="88" y="532" type="qcurve" smooth="yes"/>
      <point x="63" y="532"/>
      <point x="28" y="568"/>
      <point x="28" y="593" type="qcurve" smooth="yes"/>
      <point x="28" y="627"/>
      <point x="49" y="677"/>
      <point x="75" y="709"/>
      <point x="96" y="725"/>
      <point x="96" y="725" type="qcurve"/>
    </contour>
  </outline>
</glyph>
<glyph name="quotedblleft" format="1">
  <advance width="357"/>
  <unicode hex="201C"/>
  <outline>
    <contour>
      <point x="299" y="708" type="line"/>
      <point x="292" y="695"/>
      <point x="285" y="665"/>
      <point x="283" y="651" type="qcurve"/>
      <point x="302" y="645"/>
      <point x="328" y="613"/>
      <point x="328" y="593" type="qcurve" smooth="yes"/>
      <point x="328" y="568"/>
      <point x="292" y="532"/>
      <point x="267" y="532" type="qcurve" smooth="yes"/>
      <point x="242" y="532"/>
      <point x="208" y="568"/>
      <point x="208" y="593" type="qcurve" smooth="yes"/>
      <point x="208" y="627"/>
      <point x="228" y="677"/>
      <point x="255" y="709"/>
      <point x="275" y="725"/>
      <point x="275" y="725" type="qcurve"/>
    </contour>
    <contour>
      <point x="121" y="708" type="line"/>
      <point x="113" y="695"/>
      <point x="105" y="665"/>
      <point x="102" y="651" type="qcurve"/>
      <point x="122" y="645"/>
      <point x="147" y="613"/>
      <point x="147" y="593" type="qcurve" smooth="yes"/>
      <point x="147" y="568"/>
      <point x="113" y="532"/>
      <point x="88" y="532" type="qcurve" smooth="yes"/>
      <point x="63" y="532"/>
      <point x="28" y="568"/>
      <point x="28" y="593" type="qcurve" smooth="yes"/>
      <point x="28" y="627"/>
      <point x="49" y="677"/>
      <point x="75" y="709"/>
      <point x="96" y="725"/>
      <point x="96" y="725" type="qcurve"/>
    </contour>
  </outline>
</glyph>
<glyph name="ellipsis" format="1">
  <advance width="542"/>
  <unicode hex="2026"/>
  <outline>
    <contour>
      <point x="94" y="100" type="qcurve" smooth="yes"/>
      <point x="119" y="100"/>
      <point x="153" y="65"/>
      <point x="153" y="40" type="qcurve" smooth="yes"/>
      <point x="153" y="15"/>
      <point x="119" y="-19"/>
      <point x="94" y="-19" type="qcurve" smooth="yes"/>
      <point x="69" y="-19"/>
      <point x="35" y="15"/>
      <point x="35" y="40" type="qcurve" smooth="yes"/>
      <point x="35" y="65"/>
      <point x="69" y="100"/>
    </contour>
    <contour>
      <point x="268" y="100" type="qcurve" smooth="yes"/>
      <point x="293" y="100"/>
      <point x="328" y="65"/>
      <point x="328" y="40" type="qcurve" smooth="yes"/>
      <point x="328" y="15"/>
      <point x="293" y="-19"/>
      <point x="268" y="-19" type="qcurve" smooth="yes"/>
      <point x="244" y="-19"/>
      <point x="210" y="15"/>
      <point x="210" y="40" type="qcurve" smooth="yes"/>
      <point x="210" y="65"/>
      <point x="244" y="100"/>
    </contour>
    <contour>
      <point x="447" y="100" type="qcurve" smooth="yes"/>
      <point x="472" y="100"/>
      <point x="508" y="65"/>
      <point x="508" y="40" type="qcurve" smooth="yes"/>
      <point x="508" y="15"/>
      <point x="472" y="-19"/>
      <point x="447" y="-19" type="qcurve" smooth="yes"/>
      <point x="422" y="-19"/>
      <point x="389" y="15"/>
      <point x="389" y="40" type="qcurve" smooth="yes"/>
      <point x="389" y="65"/>
      <point x="422" y="100"/>
    </contour>
  </outline>
</glyph>
<glyph name="Euro" format="1">
  <advance width="426"/>
  <unicode hex="20AC"/>
  <outline>
    <contour>
      <point x="-1" y="376" type="line"/>
      <point x="-1" y="481" type="line"/>
      <point x="356" y="481" type="line"/>
      <point x="356" y="376" type="line"/>
    </contour>
    <contour>
      <point x="-1" y="224" type="line"/>
      <point x="-1" y="329" type="line"/>
      <point x="356" y="329" type="line"/>
      <point x="356" y="224" type="line"/>
    </contour>
    <component base="C"/>
  </outline>
</glyph>
<glyph name="trademark" format="1">
  <advance width="429"/>
  <unicode hex="2122"/>
  <outline>
    <contour>
      <point x="135" y="653" type="line"/>
      <point x="135" y="513" type="line"/>
      <point x="87" y="513" type="line"/>
      <point x="87" y="653" type="line"/>
      <point x="24" y="653" type="line"/>
      <point x="24" y="698" type="line"/>
      <point x="254" y="698" type="line"/>
      <point x="293" y="591" type="line"/>
      <point x="331" y="698" type="line"/>
      <point x="393" y="698" type="line"/>
      <point x="393" y="513" type="line"/>
      <point x="350" y="513" type="line"/>
      <point x="350" y="631" type="line"/>
      <point x="309" y="513" type="line"/>
      <point x="277" y="513" type="line"/>
      <point x="237" y="631" type="line"/>
      <point x="237" y="513" type="line"/>
      <point x="190" y="513" type="line"/>
      <point x="190" y="653" type="line"/>
    </contour>
  </outline>
</glyph>
<glyph name="commaturnedabovecomb" format="1">
  <advance width="266"/>
    <anchor name="top" x="133" y="750"/>
    <anchor name="_top" x="133" y="600"/>
    <anchor name="top.1" x="133" y="750"/>
    <anchor name="_top.1" x="133" y="600"/>
  <outline>
    <contour>
      <point x="165" y="726" type="line"/>
      <point x="158" y="713"/>
      <point x="150" y="681"/>
      <point x="149" y="667" type="qcurve"/>
      <point x="167" y="663"/>
      <point x="193" y="630"/>
      <point x="193" y="609" type="qcurve" smooth="yes"/>
      <point x="193" y="584"/>
      <point x="158" y="550"/>
      <point x="133" y="550" type="qcurve" smooth="yes"/>
      <point x="108" y="550"/>
      <point x="73" y="584"/>
      <point x="73" y="609" type="qcurve" smooth="yes"/>
      <point x="73" y="643"/>
      <point x="93" y="693"/>
      <point x="120" y="725"/>
      <point x="140" y="741"/>
      <point x="140" y="741" type="qcurve"/>
    </contour>
    <contour>
      <point x="133" y="750" type="move" name="top"/>
    </contour>
    <contour>
      <point x="133" y="600" type="move" name="_top"/>
    </contour>
    <contour>
      <point x="133" y="750" type="move" name="top.1"/>
    </contour>
    <contour>
      <point x="133" y="600" type="move" name="_top.1"/>
    </contour>
  </outline>
</glyph>
<glyph name="ft" format="1">
  <advance width="500"/>
  <outline>
    <contour>
      <point x="376" y="132" type="line" smooth="yes"/>
      <point x="376" y="98"/>
      <point x="414" y="75"/>
      <point x="449" y="75" type="qcurve"/>
      <point x="416" y="-13" type="line"/>
      <point x="341" y="-11"/>
      <point x="266" y="61"/>
      <point x="266" y="132" type="qcurve" smooth="yes"/>
      <point x="266" y="605" type="line"/>
      <point x="256" y="608"/>
      <point x="233" y="609"/>
      <point x="219" y="609" type="qcurve" smooth="yes"/>
      <point x="203" y="609"/>
      <point x="172" y="597"/>
      <point x="152" y="570"/>
      <point x="152" y="548" type="qcurve" smooth="yes"/>
      <point x="152" y="499" type="line"/>
      <point x="238" y="499" type="line"/>
      <point x="214" y="396" type="line"/>
      <point x="152" y="396" type="line"/>
      <point x="152" y="0" type="line"/>
      <point x="124" y="0"/>
      <point x="67" y="0"/>
      <point x="39" y="0" type="qcurve"/>
      <point x="39" y="516" type="line" smooth="yes"/>
      <point x="39" y="557"/>
      <point x="61" y="627"/>
      <point x="107" y="679"/>
      <point x="179" y="708"/>
      <point x="230" y="708" type="qcurve" smooth="yes"/>
      <point x="263" y="708"/>
      <point x="332" y="697"/>
      <point x="376" y="685" type="qcurve"/>
      <point x="376" y="499" type="line"/>
      <point x="471" y="499" type="line"/>
      <point x="447" y="396" type="line"/>
      <point x="376" y="396" type="line"/>
    </contour>
  </outline>
</glyph>
